<?xml version="1.0" standalone="no"?>
<!DOCTYPE svg PUBLIC "-//W3C//DTD SVG 20010904//EN"
 "http://www.w3.org/TR/2001/REC-SVG-20010904/DTD/svg10.dtd">
<svg version="1.0" xmlns="http://www.w3.org/2000/svg"
 width="128.000000pt" height="128.000000pt" viewBox="0 0 128.000000 128.000000"
 preserveAspectRatio="xMidYMid meet">
<metadata>
Created by potrace 1.14, written by Peter Selinger 2001-2017
</metadata>
<g transform="translate(0.000000,128.000000) scale(0.100000,-0.100000)"
fill="#000000" stroke="none">
<path d="M525 1152 c-23 -9 -79 -39 -125 -66 -47 -27 -115 -66 -151 -87 -87
-50 -162 -128 -202 -209 -29 -59 -32 -73 -32 -160 0 -88 3 -101 33 -162 38
-77 146 -192 239 -254 51 -34 153 -78 208 -90 85 -19 209 -23 295 -11 192 27
368 143 441 292 32 65 34 76 34 165 -1 81 -4 103 -27 150 -54 115 -168 220
-355 328 -225 130 -267 142 -358 104z"/>
</g>
</svg>
